<svg data-v-423bf9ae="" xmlns="http://www.w3.org/2000/svg" viewBox="0 0 380 90" class="iconLeftSlogan"><!----><!----><!----><g data-v-423bf9ae="" id="f3f8a91f-fbf6-40c0-965f-9008ba0754a9" fill="#FFFFFF" transform="matrix(6.054490506946714,0,0,6.054490506946714,109.282286250321,-45.2875886306045)"><path d="M4.55 12.50L6.85 12.50L6.85 16.95L6.85 16.95Q6.17 17.19 5.47 17.29L5.47 17.29L5.47 17.29Q4.76 17.39 3.81 17.39L3.81 17.39L3.81 17.39Q2.60 17.39 2.05 17.06L2.05 17.06L2.05 17.06Q1.50 16.73 1.29 15.79L1.29 15.79L1.29 15.79Q1.08 14.85 1.08 12.81L1.08 12.81L1.08 12.81Q1.08 10.91 1.33 9.95L1.33 9.95L1.33 9.95Q1.58 8.99 2.25 8.60L2.25 8.60L2.25 8.60Q2.91 8.22 4.27 8.22L4.27 8.22L4.27 8.22Q4.75 8.22 5.41 8.29L5.41 8.29L5.41 8.29Q6.08 8.36 6.54 8.48L6.54 8.48L6.41 9.27L6.41 9.27Q5.84 9.14 5.04 9.08L5.04 9.08L5.04 9.08Q4.24 9.02 3.72 9.02L3.72 9.02L3.72 9.02Q3.08 9.02 2.73 9.09L2.73 9.09L2.73 9.09Q2.38 9.17 2.21 9.40L2.21 9.40L2.21 9.40Q2.03 9.63 2.03 10.11L2.03 10.11L2.03 16.66L6.09 16.66L6.09 13.29L4.55 13.29L4.55 12.50ZM11.75 10.07L11.75 10.07Q12.66 10.07 13.16 10.23L13.16 10.23L13.16 10.23Q13.66 10.40 13.87 10.78L13.87 10.78L13.87 10.78Q14.08 11.16 14.08 11.84L14.08 11.84L14.08 17.18L13.71 17.18L13.44 16.48L13.44 16.48Q12.95 16.90 12.34 17.09L12.34 17.09L12.34 17.09Q11.73 17.29 10.89 17.29L10.89 17.29L10.89 17.29Q9.77 17.29 9.32 16.84L9.32 16.84L9.32 16.84Q8.86 16.39 8.86 15.29L8.86 15.29L8.86 15.29Q8.86 14.21 9.11 13.78L9.11 13.78L9.11 13.78Q9.37 13.36 10.18 13.22L10.18 13.22L10.18 13.22Q10.99 13.09 13.05 13.09L13.05 13.09L13.19 13.09L13.19 11.03L13.19 11.03Q12.54 10.84 11.52 10.84L11.52 10.84L11.52 10.84Q10.43 10.84 9.30 11.17L9.30 11.17L9.17 10.46L9.17 10.46Q9.58 10.29 10.32 10.18L10.32 10.18L10.32 10.18Q11.07 10.07 11.75 10.07L11.75 10.07ZM12.01 16.51L12.01 16.51Q12.70 16.51 12.94 16.32L12.94 16.32L12.94 16.32Q13.19 16.13 13.19 15.60L13.19 15.60L13.19 13.83L10.88 13.83L10.88 13.83Q10.18 13.83 9.93 14.02L9.93 14.02L9.93 14.02Q9.67 14.21 9.67 14.73L9.67 14.73L9.67 16.51L12.01 16.51ZM24.04 10.07L24.04 10.07Q25.98 10.07 25.98 11.10L25.98 11.10L25.98 17.18L25.07 17.18L25.07 10.81L23.32 10.81L23.32 10.81Q22.58 10.81 22.28 10.96L22.28 10.96L22.28 10.96Q21.98 11.10 21.92 11.51L21.92 11.51L21.92 17.18L21.01 17.18L21.01 10.81L19.26 10.81L19.26 10.81Q18.69 10.81 18.40 10.89L18.40 10.89L18.40 10.89Q18.10 10.98 17.98 11.17L17.98 11.17L17.98 11.17Q17.85 11.37 17.85 11.76L17.85 11.76L17.85 17.18L16.94 17.18L16.94 10.18L17.32 10.18L17.58 10.88L17.58 10.88Q18.06 10.44 18.63 10.26L18.63 10.26L18.63 10.26Q19.19 10.07 19.98 10.07L19.98 10.07L19.98 10.07Q21.53 10.07 21.84 10.71L21.84 10.71L21.84 10.71Q22.27 10.37 22.80 10.22L22.80 10.22L22.80 10.22Q23.32 10.07 24.04 10.07L24.04 10.07ZM34.22 13.68L34.22 13.68Q34.22 15.29 34.03 16.02L34.03 16.02L34.03 16.02Q33.85 16.76 33.34 17.02L33.34 17.02L33.34 17.02Q32.83 17.29 31.70 17.29L31.70 17.29L31.68 17.29L31.68 17.29Q30.95 17.29 30.55 17.23L30.55 17.23L30.55 17.23Q29.79 17.16 28.83 16.90L28.83 16.90L28.83 7.80L29.74 7.64L29.74 10.36L29.74 10.36Q30.03 10.14 30.53 10.05L30.53 10.05L30.53 10.05Q31.02 9.97 31.86 9.97L31.86 9.97L31.86 9.97Q32.90 9.97 33.38 10.25L33.38 10.25L33.38 10.25Q33.87 10.53 34.04 11.29L34.04 11.29L34.04 11.29Q34.22 12.05 34.22 13.68L34.22 13.68ZM33.29 16.24L33.29 10.78L30.41 10.78L30.41 10.78Q30.00 10.78 29.87 10.84L29.87 10.84L29.87 10.84Q29.74 10.91 29.74 11.12L29.74 11.12L29.74 16.48L32.61 16.48L32.61 16.48Q33.00 16.48 33.15 16.43L33.15 16.43L33.15 16.43Q33.29 16.38 33.29 16.24L33.29 16.24ZM36.50 17.18L36.50 17.18ZM36.67 10.19L37.58 10.02L37.58 17.18L36.67 17.18L36.67 10.19ZM37.16 8.74L37.16 8.74Q36.76 8.74 36.63 8.61L36.63 8.61L36.63 8.61Q36.50 8.48 36.50 8.12L36.50 8.12L36.50 8.12Q36.50 7.74 36.63 7.61L36.63 7.61L36.63 7.61Q36.76 7.48 37.16 7.48L37.16 7.48L37.16 7.48Q37.52 7.48 37.65 7.61L37.65 7.61L37.65 7.61Q37.77 7.74 37.77 8.12L37.77 8.12L37.77 8.12Q37.77 8.48 37.65 8.61L37.65 8.61L37.65 8.61Q37.53 8.74 37.16 8.74L37.16 8.74ZM42.29 17.29L42.29 17.29Q41.29 17.29 40.82 17.02L40.82 17.02L40.82 17.02Q40.35 16.74 40.18 16.00L40.18 16.00L40.18 16.00Q40.01 15.26 40.01 13.68L40.01 13.68L40.01 13.68Q40.01 12.08 40.18 11.35L40.18 11.35L40.18 11.35Q40.35 10.61 40.82 10.34L40.82 10.34L40.82 10.34Q41.29 10.07 42.29 10.07L42.29 10.07L42.29 10.07Q43.50 10.07 44.52 10.30L44.52 10.30L44.38 11.06L44.38 11.06Q43.18 10.84 42.24 10.84L42.24 10.84L42.24 10.84Q41.50 10.84 41.21 11.11L41.21 11.11L41.21 11.11Q40.92 11.38 40.92 12.07L40.92 12.07L40.92 16.32L40.92 16.32Q41.52 16.52 42.60 16.52L42.60 16.52L42.60 16.52Q43.04 16.52 43.46 16.45L43.46 16.45L43.46 16.45Q43.88 16.38 44.56 16.18L44.56 16.18L44.67 16.90L44.67 16.90Q44.24 17.08 43.60 17.19L43.60 17.19L43.60 17.19Q42.97 17.29 42.29 17.29L42.29 17.29Z"></path></g><!----><g data-v-423bf9ae="" id="291bf128-8226-4f16-b951-670a91e20408" transform="matrix(2.994410458179972,0,0,2.994410458179972,0.08943266912044834,-1.9385669710569857)" stroke="none" fill="#DBDF24"><path d="M17.572 23.933l4.106 7.095L32 13.189h-8.981V7.582L11.51.972 0 7.582v13.222l11.51 6.611 6.062-3.482zm10.96-8.744l-6.855 11.846-6.855-11.846h13.71z"></path></g><!----><g data-v-423bf9ae="" id="b6d74745-199e-4fee-b29c-e42b1ccb9033" fill="#FFFFFF" transform="matrix(0.8466622546237839,0,0,0.8466622546237839,115.78726727452056,58.22200970724311)"><path d="M5.29 2.21L3.98 2.21L0.04 11.48L1.20 11.48L2.34 8.79L6.93 8.79L8.06 11.48L9.23 11.48ZM2.74 7.83L4.63 3.30L6.52 7.83ZM31.36 2.10C28.57 2.10 26.80 4.21 26.80 6.85C26.80 9.48 28.50 11.59 31.33 11.59C33.01 11.59 34.10 10.74 34.69 9.84L34.69 11.48L35.66 11.48L35.66 6.55L31.30 6.55L31.30 7.50L34.69 7.50C34.69 9.44 33.10 10.57 31.42 10.57C29.16 10.57 27.85 8.93 27.85 6.85C27.85 4.76 29.19 3.12 31.44 3.12C32.86 3.12 33.87 3.74 34.43 4.73L35.57 4.73C34.89 3.18 33.35 2.10 31.36 2.10ZM48.66 2.21L47.35 2.21L43.41 11.48L44.58 11.48L45.71 8.79L50.30 8.79L51.44 11.48L52.60 11.48ZM46.12 7.83L48.01 3.30L49.90 7.83ZM67.72 2.21L67.72 10.01L61.99 2.21L60.77 2.21L60.77 11.48L61.82 11.48L61.82 3.65L67.55 11.48L68.77 11.48L68.77 2.21ZM82.01 2.10C79.23 2.10 77.45 4.21 77.45 6.85C77.45 9.48 79.16 11.59 81.98 11.59C83.66 11.59 84.76 10.74 85.34 9.84L85.34 11.48L86.31 11.48L86.31 6.55L81.96 6.55L81.96 7.50L85.34 7.50C85.34 9.44 83.75 10.57 82.07 10.57C79.81 10.57 78.50 8.93 78.50 6.85C78.50 4.76 79.84 3.12 82.10 3.12C83.51 3.12 84.52 3.74 85.08 4.73L86.23 4.73C85.54 3.18 84 2.10 82.01 2.10ZM111.83 3.22L111.83 2.21L105.14 2.21L105.14 11.48L106.19 11.48L106.19 7.46L111.22 7.46L111.22 6.44L106.19 6.44L106.19 3.22ZM124.42 2.10C121.60 2.10 119.71 4.21 119.71 6.85C119.71 9.48 121.60 11.59 124.42 11.59C127.23 11.59 129.12 9.48 129.12 6.85C129.12 4.21 127.23 2.10 124.42 2.10ZM124.42 10.57C122.16 10.57 120.76 8.93 120.76 6.85C120.76 4.76 122.16 3.12 124.42 3.12C126.67 3.12 128.07 4.76 128.07 6.85C128.07 8.93 126.67 10.57 124.42 10.57ZM143.99 2.21L136.47 2.21L136.47 3.22L139.71 3.22L139.71 11.48L140.76 11.48L140.76 3.22L143.99 3.22ZM168.99 3.22L168.99 2.21L162.30 2.21L162.30 11.48L163.35 11.48L163.35 7.46L168.38 7.46L168.38 6.44L163.35 6.44L163.35 3.22ZM184.18 2.21L184.18 7.52C184.18 9.67 182.76 10.57 181.29 10.57C179.82 10.57 178.40 9.67 178.40 7.52L178.40 2.21L177.35 2.21L177.35 7.49C177.35 9.95 178.98 11.59 181.29 11.59C183.61 11.59 185.23 9.94 185.23 7.49L185.23 2.21ZM200.97 2.21L193.45 2.21L193.45 3.22L196.69 3.22L196.69 11.48L197.74 11.48L197.74 3.22L200.97 3.22ZM216.02 2.21L216.02 7.52C216.02 9.67 214.59 10.57 213.12 10.57C211.65 10.57 210.24 9.67 210.24 7.52L210.24 2.21L209.19 2.21L209.19 7.49C209.19 9.95 210.81 11.59 213.12 11.59C215.45 11.59 217.07 9.94 217.07 7.49L217.07 2.21ZM227.28 7.92L230.50 7.92L232.74 11.48L233.98 11.48L231.55 7.74C232.58 7.50 233.79 6.90 233.79 5.11C233.79 3.35 232.57 2.21 230.66 2.21L226.23 2.21L226.23 11.48L227.28 11.48ZM227.28 3.21L230.54 3.21C231.85 3.21 232.74 3.93 232.74 5.11C232.74 6.55 231.48 6.93 230.48 6.93L227.28 6.93ZM249.41 3.22L249.41 2.21L242.59 2.21L242.59 11.48L249.41 11.48L249.41 10.47L243.64 10.47L243.64 7.35L248.79 7.35L248.79 6.33L243.64 6.33L243.64 3.22Z"></path></g></svg>